<svg xmlns="http://www.w3.org/2000/svg" xmlns:xlink="http://www.w3.org/1999/xlink" xml:space="preserve" version="1.1" style="shape-rendering:geometricPrecision;text-rendering:geometricPrecision;image-rendering:optimizeQuality;" viewBox="0 0 333 333" x="0px" y="0px" fill-rule="evenodd" clip-rule="evenodd"><defs><style type="text/css">
    .fil0 {fill:#28a745}
  </style></defs><g><path class="fil0" d="M179 146c-2,-1 -4,-2 -6,-3l0 -59c18,2 34,9 47,20l-41 42zm-12 132c-62,0 -112,-50 -112,-111 0,-62 50,-112 112,-112 61,0 111,50 111,112 0,61 -50,111 -111,111zm137 -111c0,-76 -61,-138 -137,-138 -76,0 -138,62 -138,138 0,76 62,137 138,137 76,0 137,-61 137,-137zm-191 62l42 -41c1,1 3,1 5,2l0 59c-18,-2 -34,-9 -47,-20zm60 20l0 -59c2,-1 4,-1 6,-2l41 41c-13,11 -29,18 -47,20zm-69 -29c-11,-13 -18,-29 -20,-47l59 0c1,2 2,4 3,6l-42 41zm63 -151c-54,0 -98,44 -98,98 0,53 44,97 98,97 53,0 97,-44 97,-97 0,-54 -44,-98 -97,-98zm21 86l41 -42c11,13 18,29 20,47l-59 0c-1,-2 -1,-4 -2,-5zm41 65l-41 -41c1,-2 1,-4 2,-6l59 0c-2,18 -9,34 -20,47zm-69 -77c-2,1 -4,2 -5,3l-42 -42c13,-11 29,-18 47,-20l0 59zm-17 17l-59 0c2,-18 9,-34 20,-47l42 42c-1,1 -2,3 -3,5z"/></g>
</svg>
